<svg xmlns="http://www.w3.org/2000/svg" viewBox="0 0 64 64" id="password"><path fill="#88e2de" d="M42.168 18.574H40.54v-1.327a8.54 8.54 0 0 0-17.08 0v1.323h-1.63a1.5 1.5 0 0 0-1.5 1.5V34.76a1.5 1.5 0 0 0 1.5 1.5h20.338a1.5 1.5 0 0 0 1.5-1.5V20.074a1.5 1.5 0 0 0-1.5-1.5Zm-3.5 3v7.884c0 1.262-.409 3.784-2.1 3.784v.014H23.332V21.574ZM26.46 17.247a5.54 5.54 0 0 1 11.08 0v1.323H26.46ZM8.752 47.362l1.136-1.135-1.136-1.136a1.5 1.5 0 0 1 2.122-2.121l1.135 1.135 1.136-1.135a1.5 1.5 0 0 1 2.121 2.121l-1.136 1.136 1.136 1.135a1.5 1.5 0 1 1-2.121 2.121l-1.136-1.135-1.135 1.135a1.5 1.5 0 0 1-2.122-2.121Zm7.916 6.431a1.5 1.5 0 0 1-1.5 1.5H8.85a1.5 1.5 0 0 1 0-3h6.318a1.5 1.5 0 0 1 1.5 1.5Zm5.412-6.431 1.135-1.135-1.135-1.136a1.5 1.5 0 0 1 2.12-2.121l1.135 1.135 1.136-1.135a1.5 1.5 0 0 1 2.121 2.121l-1.135 1.136 1.135 1.135a1.5 1.5 0 1 1-2.121 2.121l-1.136-1.135-1.135 1.135a1.5 1.5 0 0 1-2.121-2.121ZM30 53.793a1.5 1.5 0 0 1-1.5 1.5h-6.322a1.5 1.5 0 0 1 0-3H28.5a1.5 1.5 0 0 1 1.5 1.5Zm5.412-6.431 1.135-1.135-1.135-1.136a1.5 1.5 0 0 1 2.121-2.121l1.136 1.135L39.8 42.97a1.5 1.5 0 0 1 2.121 2.121l-1.135 1.136 1.135 1.135a1.5 1.5 0 1 1-2.121 2.121l-1.135-1.135-1.136 1.135a1.5 1.5 0 0 1-2.121-2.121Zm7.915 6.431a1.5 1.5 0 0 1-1.5 1.5h-6.322a1.5 1.5 0 0 1 0-3h6.317a1.5 1.5 0 0 1 1.5 1.5Zm5.412-6.431 1.136-1.135-1.136-1.136a1.5 1.5 0 0 1 2.121-2.121l1.136 1.135 1.135-1.135a1.5 1.5 0 0 1 2.122 2.121l-1.136 1.136 1.136 1.135a1.5 1.5 0 1 1-2.122 2.121l-1.135-1.135-1.136 1.135a1.5 1.5 0 0 1-2.121-2.121Zm7.916 6.431a1.5 1.5 0 0 1-1.5 1.5h-6.323a1.5 1.5 0 0 1 0-3h6.318a1.5 1.5 0 0 1 1.5 1.5Z"></path></svg>